<?xml version="1.0" encoding="utf-8"?>
<!-- Generator: Adobe Illustrator 18.1.1, SVG Export Plug-In . SVG Version: 6.00 Build 0)  -->
<svg version="1.1" id="Layer_1" xmlns="http://www.w3.org/2000/svg" xmlns:xlink="http://www.w3.org/1999/xlink" x="0px" y="0px"
	 viewBox="0 0 177.8 9.6" enable-background="new 0 0 177.8 9.6" xml:space="preserve">
<g>
	<path d="M5.9,6l1.7,0.5C7.3,7.5,6.9,8.2,6.3,8.6S4.9,9.3,4,9.3c-1.1,0-2.1-0.4-2.8-1.2S0.1,6.3,0.1,4.9c0-1.4,0.4-2.5,1.1-3.3
		s1.7-1.2,2.9-1.2c1.1,0,1.9,0.3,2.6,0.9c0.4,0.4,0.7,0.9,0.9,1.6L5.9,3.3C5.8,2.9,5.5,2.5,5.2,2.3S4.5,1.9,4,1.9
		c-0.6,0-1.2,0.2-1.5,0.7S1.9,3.8,1.9,4.8c0,1.1,0.2,1.9,0.6,2.3S3.4,7.8,4,7.8c0.5,0,0.9-0.1,1.2-0.4S5.8,6.6,5.9,6z"/>
	<path d="M14.3,6L16,6.5c-0.3,0.9-0.7,1.6-1.3,2.1s-1.4,0.7-2.3,0.7c-1.1,0-2.1-0.4-2.8-1.2S8.5,6.3,8.5,4.9c0-1.4,0.4-2.5,1.1-3.3
		s1.7-1.2,2.9-1.2c1.1,0,1.9,0.3,2.6,0.9c0.4,0.4,0.7,0.9,0.9,1.6l-1.7,0.4c-0.1-0.4-0.3-0.8-0.6-1.1s-0.7-0.4-1.2-0.4
		c-0.6,0-1.2,0.2-1.5,0.7s-0.6,1.2-0.6,2.2c0,1.1,0.2,1.9,0.6,2.3s0.9,0.7,1.5,0.7c0.5,0,0.9-0.1,1.2-0.4S14.2,6.6,14.3,6z"/>
	<path d="M25,9.1h-1.9l-0.8-2h-3.4l-0.7,2h-1.8l3.3-8.6h1.8L25,9.1z M21.8,5.7l-1.2-3.2l-1.2,3.2H21.8z"/>
	<path d="M33.9,6l1.7,0.5c-0.3,0.9-0.7,1.6-1.3,2.1S32.9,9.3,32,9.3c-1.1,0-2.1-0.4-2.8-1.2s-1.1-1.8-1.1-3.2c0-1.4,0.4-2.5,1.1-3.3
		s1.7-1.2,2.9-1.2c1.1,0,1.9,0.3,2.6,0.9c0.4,0.4,0.7,0.9,0.9,1.6l-1.7,0.4c-0.1-0.4-0.3-0.8-0.6-1.1S32.4,1.9,32,1.9
		c-0.6,0-1.2,0.2-1.5,0.7s-0.6,1.2-0.6,2.2c0,1.1,0.2,1.9,0.6,2.3s0.9,0.7,1.5,0.7c0.5,0,0.9-0.1,1.2-0.4S33.7,6.6,33.9,6z"/>
	<path d="M40.5,7.2l1.6,0.3c-0.2,0.6-0.5,1.1-1,1.4s-1,0.5-1.7,0.5c-1.1,0-1.9-0.4-2.4-1.1c-0.4-0.6-0.6-1.3-0.6-2.1
		c0-1,0.3-1.8,0.8-2.4s1.2-0.9,2-0.9c0.9,0,1.7,0.3,2.2,0.9s0.8,1.5,0.8,2.8h-4.1c0,0.5,0.1,0.9,0.4,1.1s0.6,0.4,0.9,0.4
		c0.3,0,0.5-0.1,0.7-0.2S40.4,7.5,40.5,7.2z M40.6,5.5c0-0.5-0.1-0.8-0.4-1.1S39.7,4,39.3,4c-0.4,0-0.7,0.1-0.9,0.4
		s-0.3,0.6-0.3,1.1H40.6z"/>
	<path d="M49,9.1h-1.6V6c0-0.7,0-1.1-0.1-1.3s-0.2-0.4-0.3-0.5S46.6,4,46.4,4c-0.3,0-0.5,0.1-0.8,0.2s-0.4,0.4-0.5,0.6
		S45,5.6,45,6.3v2.8h-1.6V2.9h1.5v0.9c0.5-0.7,1.2-1.1,2.1-1.1c0.4,0,0.7,0.1,1,0.2s0.5,0.3,0.7,0.5s0.3,0.4,0.3,0.7S49,4.8,49,5.3
		V9.1z"/>
	<path d="M53.4,2.9v1.3h-1.1v2.5c0,0.5,0,0.8,0,0.9s0.1,0.2,0.1,0.2s0.2,0.1,0.3,0.1c0.2,0,0.4-0.1,0.7-0.2L53.5,9
		c-0.4,0.2-0.8,0.2-1.3,0.2c-0.3,0-0.6,0-0.8-0.1S51,8.9,50.9,8.8s-0.2-0.4-0.2-0.6c0-0.2-0.1-0.6-0.1-1.2V4.2h-0.8V2.9h0.8V1.7
		l1.7-1v2.2H53.4z"/>
	<path d="M58,7.2l1.6,0.3c-0.2,0.6-0.5,1.1-1,1.4s-1,0.5-1.7,0.5c-1.1,0-1.9-0.4-2.4-1.1c-0.4-0.6-0.6-1.3-0.6-2.1
		c0-1,0.3-1.8,0.8-2.4s1.2-0.9,2-0.9c0.9,0,1.7,0.3,2.2,0.9s0.8,1.5,0.8,2.8h-4.1c0,0.5,0.1,0.9,0.4,1.1s0.6,0.4,0.9,0.4
		c0.3,0,0.5-0.1,0.7-0.2S57.9,7.5,58,7.2z M58.1,5.5c0-0.5-0.1-0.8-0.4-1.1S57.2,4,56.9,4c-0.4,0-0.7,0.1-0.9,0.4s-0.3,0.6-0.3,1.1
		H58.1z"/>
	<path d="M62.5,9.1h-1.6V2.9h1.5v0.9c0.3-0.4,0.5-0.7,0.7-0.8s0.4-0.2,0.7-0.2c0.4,0,0.7,0.1,1.1,0.3l-0.5,1.4
		c-0.3-0.2-0.5-0.3-0.8-0.3c-0.2,0-0.4,0.1-0.6,0.2s-0.3,0.4-0.4,0.7s-0.1,1-0.1,2.1V9.1z"/>
	<path d="M67.9,2.9h0.9V2.5c0-0.5,0.1-0.9,0.2-1.2s0.3-0.5,0.6-0.6s0.7-0.2,1.1-0.2c0.5,0,0.9,0.1,1.4,0.2l-0.2,1.1
		c-0.3-0.1-0.5-0.1-0.8-0.1c-0.2,0-0.4,0.1-0.5,0.2s-0.2,0.3-0.2,0.6v0.4h1.2v1.3h-1.2v4.9h-1.6V4.2h-0.9V2.9z"/>
	<path d="M72.1,5.9c0-0.5,0.1-1.1,0.4-1.6s0.7-0.9,1.1-1.2s1-0.4,1.7-0.4c0.9,0,1.7,0.3,2.3,0.9s0.9,1.4,0.9,2.3
		c0,0.9-0.3,1.7-0.9,2.3s-1.4,0.9-2.3,0.9c-0.6,0-1.1-0.1-1.6-0.4s-0.9-0.6-1.2-1.1S72.1,6.7,72.1,5.9z M73.7,6
		c0,0.6,0.1,1.1,0.4,1.4s0.7,0.5,1.1,0.5s0.8-0.2,1.1-0.5s0.4-0.8,0.4-1.4c0-0.6-0.1-1.1-0.4-1.4s-0.7-0.5-1.1-0.5s-0.8,0.2-1.1,0.5
		S73.7,5.4,73.7,6z"/>
	<path d="M81.2,9.1h-1.6V2.9h1.5v0.9c0.3-0.4,0.5-0.7,0.7-0.8s0.4-0.2,0.7-0.2c0.4,0,0.7,0.1,1.1,0.3l-0.5,1.4
		c-0.3-0.2-0.5-0.3-0.8-0.3c-0.2,0-0.4,0.1-0.6,0.2s-0.3,0.4-0.4,0.7s-0.1,1-0.1,2.1V9.1z"/>
	<path d="M94.6,9.1h-1.9l-0.8-2h-3.4l-0.7,2H86l3.3-8.6h1.8L94.6,9.1z M91.4,5.7l-1.2-3.2l-1.2,3.2H91.4z"/>
	<path d="M96.9,9.1h-1.6V2.9h1.5v0.9c0.3-0.4,0.5-0.7,0.7-0.8s0.4-0.2,0.7-0.2c0.4,0,0.7,0.1,1.1,0.3l-0.5,1.4
		c-0.3-0.2-0.5-0.3-0.8-0.3c-0.2,0-0.4,0.1-0.6,0.2s-0.3,0.4-0.4,0.7s-0.1,1-0.1,2.1V9.1z"/>
	<path d="M102.7,2.9v1.3h-1.1v2.5c0,0.5,0,0.8,0,0.9s0.1,0.2,0.1,0.2s0.2,0.1,0.3,0.1c0.2,0,0.4-0.1,0.7-0.2l0.1,1.3
		c-0.4,0.2-0.8,0.2-1.3,0.2c-0.3,0-0.6,0-0.8-0.1s-0.4-0.2-0.5-0.4s-0.2-0.4-0.2-0.6c0-0.2-0.1-0.6-0.1-1.2V4.2h-0.8V2.9h0.8V1.7
		l1.7-1v2.2H102.7z"/>
	<path fill="#0DB2DF" d="M108.8,7.9V5.7h-2.2V4.1h2.2V1.9h1.5v2.2h2.3v1.5h-2.3v2.2H108.8z"/>
	<path d="M116.9,9.1V0.6h2.8c1.1,0,1.7,0,2.1,0.1c0.5,0.1,0.9,0.4,1.2,0.8s0.5,1,0.5,1.7c0,0.5-0.1,1-0.3,1.3s-0.4,0.6-0.7,0.8
		s-0.6,0.3-0.9,0.4c-0.4,0.1-1,0.1-1.8,0.1h-1.1v3.2H116.9z M118.7,2v2.4h0.9c0.7,0,1.1,0,1.4-0.1s0.4-0.2,0.5-0.4s0.2-0.4,0.2-0.7
		c0-0.3-0.1-0.6-0.3-0.8s-0.4-0.3-0.7-0.4c-0.2,0-0.6-0.1-1.2-0.1H118.7z"/>
	<path d="M128.9,9.1V8.2c-0.2,0.3-0.5,0.6-0.9,0.8s-0.8,0.3-1.2,0.3c-0.4,0-0.8-0.1-1.1-0.3s-0.6-0.4-0.7-0.8s-0.2-0.8-0.2-1.4V2.9
		h1.6v2.9c0,0.9,0,1.4,0.1,1.6s0.2,0.4,0.3,0.5s0.4,0.2,0.6,0.2c0.3,0,0.5-0.1,0.8-0.2s0.4-0.3,0.5-0.6s0.1-0.8,0.1-1.7V2.9h1.6v6.2
		H128.9z"/>
	<path d="M131.9,9.1V0.6h1.6v3.1c0.5-0.6,1.1-0.9,1.8-0.9c0.8,0,1.4,0.3,1.9,0.8S138,4.9,138,6c0,1.1-0.3,1.9-0.8,2.5
		s-1.1,0.9-1.8,0.9c-0.4,0-0.7-0.1-1.1-0.3s-0.6-0.4-0.9-0.8v0.9H131.9z M133.5,5.9c0,0.6,0.1,1.1,0.3,1.4c0.3,0.4,0.7,0.7,1.1,0.7
		c0.4,0,0.7-0.2,0.9-0.5s0.4-0.8,0.4-1.5c0-0.7-0.1-1.2-0.4-1.5s-0.6-0.5-1-0.5c-0.4,0-0.7,0.2-1,0.5S133.5,5.3,133.5,5.9z"/>
	<path d="M139.1,9.1V0.6h1.6v8.6H139.1z"/>
	<path d="M142.3,2.1V0.6h1.6v1.5H142.3z M142.3,9.1V2.9h1.6v6.2H142.3z"/>
	<path d="M150.9,4.8l-1.6,0.3c-0.1-0.3-0.2-0.6-0.4-0.7s-0.4-0.2-0.8-0.2c-0.4,0-0.7,0.1-1,0.4s-0.4,0.8-0.4,1.4
		c0,0.7,0.1,1.3,0.4,1.6s0.6,0.5,1,0.5c0.3,0,0.6-0.1,0.8-0.3s0.3-0.5,0.4-0.9L151,7c-0.2,0.7-0.5,1.3-1,1.7s-1.1,0.6-1.9,0.6
		c-0.9,0-1.6-0.3-2.2-0.9s-0.8-1.4-0.8-2.4c0-1,0.3-1.8,0.8-2.4s1.3-0.9,2.2-0.9c0.8,0,1.4,0.2,1.8,0.5S150.7,4.1,150.9,4.8z"/>
	<path d="M155.2,9.1V0.6h1.7v7.1h4.3v1.4H155.2z"/>
	<path d="M162.3,2.1V0.6h1.6v1.5H162.3z M162.3,9.1V2.9h1.6v6.2H162.3z"/>
	<path d="M164.8,2.9h0.9V2.5c0-0.5,0.1-0.9,0.2-1.2s0.3-0.5,0.6-0.6s0.7-0.2,1.1-0.2c0.5,0,0.9,0.1,1.4,0.2l-0.2,1.1
		c-0.3-0.1-0.5-0.1-0.8-0.1c-0.2,0-0.4,0.1-0.5,0.2s-0.2,0.3-0.2,0.6v0.4h1.2v1.3h-1.2v4.9h-1.6V4.2h-0.9V2.9z"/>
	<path d="M173,7.2l1.6,0.3c-0.2,0.6-0.5,1.1-1,1.4s-1,0.5-1.7,0.5c-1.1,0-1.9-0.4-2.4-1.1c-0.4-0.6-0.6-1.3-0.6-2.1
		c0-1,0.3-1.8,0.8-2.4s1.2-0.9,2-0.9c0.9,0,1.7,0.3,2.2,0.9s0.8,1.5,0.8,2.8h-4.1c0,0.5,0.1,0.9,0.4,1.1s0.6,0.4,0.9,0.4
		c0.3,0,0.5-0.1,0.7-0.2S172.9,7.5,173,7.2z M173.1,5.5c0-0.5-0.1-0.8-0.4-1.1S172.2,4,171.8,4c-0.4,0-0.7,0.1-0.9,0.4
		s-0.3,0.6-0.3,1.1H173.1z"/>
</g>
</svg>
