<?xml version="1.0" encoding="utf-8"?>
<!-- Generator: Adobe Illustrator 18.1.1, SVG Export Plug-In . SVG Version: 6.00 Build 0)  -->
<svg version="1.1" id="Layer_1" xmlns="http://www.w3.org/2000/svg" xmlns:xlink="http://www.w3.org/1999/xlink" x="0px" y="0px"
	 viewBox="0 0 113.2 24.2" enable-background="new 0 0 113.2 24.2" xml:space="preserve">
<g>
	<path d="M6.3,6.1l1.7,0.5C7.7,7.5,7.3,8.2,6.7,8.7S5.3,9.4,4.4,9.4C3.2,9.4,2.3,9,1.6,8.2S0.5,6.3,0.5,5c0-1.4,0.4-2.5,1.1-3.3
		s1.7-1.2,2.9-1.2c1.1,0,1.9,0.3,2.6,0.9C7.4,1.8,7.7,2.3,7.9,3L6.2,3.4C6.1,3,5.9,2.6,5.6,2.3S4.9,2,4.4,2C3.8,2,3.2,2.2,2.8,2.6
		S2.3,3.8,2.3,4.9c0,1.1,0.2,1.9,0.6,2.3s0.9,0.7,1.5,0.7c0.5,0,0.9-0.1,1.2-0.4S6.1,6.7,6.3,6.1z"/>
	<path d="M14.7,6.1l1.7,0.5c-0.3,0.9-0.7,1.6-1.3,2.1s-1.4,0.7-2.3,0.7c-1.1,0-2.1-0.4-2.8-1.2S8.9,6.3,8.9,5c0-1.4,0.4-2.5,1.1-3.3
		s1.7-1.2,2.9-1.2c1.1,0,1.9,0.3,2.6,0.9c0.4,0.4,0.7,0.9,0.9,1.6l-1.7,0.4C14.5,3,14.3,2.6,14,2.3S13.3,2,12.8,2
		c-0.6,0-1.2,0.2-1.5,0.7s-0.6,1.2-0.6,2.2c0,1.1,0.2,1.9,0.6,2.3s0.9,0.7,1.5,0.7c0.5,0,0.9-0.1,1.2-0.4S14.5,6.7,14.7,6.1z"/>
	<path d="M25.3,9.2h-1.9l-0.8-2h-3.4l-0.7,2h-1.8L20,0.6h1.8L25.3,9.2z M22.1,5.8l-1.2-3.2l-1.2,3.2H22.1z"/>
	<path d="M34.2,6.1l1.7,0.5c-0.3,0.9-0.7,1.6-1.3,2.1s-1.4,0.7-2.3,0.7c-1.1,0-2.1-0.4-2.8-1.2S28.4,6.3,28.4,5
		c0-1.4,0.4-2.5,1.1-3.3s1.7-1.2,2.9-1.2c1.1,0,1.9,0.3,2.6,0.9c0.4,0.4,0.7,0.9,0.9,1.6l-1.7,0.4C34,3,33.8,2.6,33.5,2.3
		S32.8,2,32.3,2c-0.6,0-1.2,0.2-1.5,0.7s-0.6,1.2-0.6,2.2c0,1.1,0.2,1.9,0.6,2.3s0.9,0.7,1.5,0.7c0.5,0,0.9-0.1,1.2-0.4
		S34.1,6.7,34.2,6.1z"/>
	<path d="M40.8,7.2l1.6,0.3c-0.2,0.6-0.5,1.1-1,1.4s-1,0.5-1.7,0.5c-1.1,0-1.9-0.4-2.4-1.1c-0.4-0.6-0.6-1.3-0.6-2.1
		c0-1,0.3-1.8,0.8-2.4s1.2-0.9,2-0.9c0.9,0,1.7,0.3,2.2,0.9s0.8,1.5,0.8,2.8h-4.1c0,0.5,0.1,0.9,0.4,1.1s0.6,0.4,0.9,0.4
		c0.3,0,0.5-0.1,0.7-0.2S40.7,7.5,40.8,7.2z M40.9,5.6c0-0.5-0.1-0.8-0.4-1.1S40,4.1,39.7,4.1c-0.4,0-0.7,0.1-0.9,0.4
		s-0.3,0.6-0.3,1.1H40.9z"/>
	<path d="M49.4,9.2h-1.6V6c0-0.7,0-1.1-0.1-1.3s-0.2-0.4-0.3-0.5s-0.3-0.2-0.6-0.2c-0.3,0-0.5,0.1-0.8,0.2S45.6,4.7,45.5,5
		s-0.1,0.7-0.1,1.4v2.8h-1.6V3h1.5v0.9c0.5-0.7,1.2-1.1,2.1-1.1c0.4,0,0.7,0.1,1,0.2s0.5,0.3,0.7,0.5s0.3,0.4,0.3,0.7
		s0.1,0.6,0.1,1.1V9.2z"/>
	<path d="M53.8,3v1.3h-1.1v2.5c0,0.5,0,0.8,0,0.9s0.1,0.2,0.1,0.2S53,8,53.1,8c0.2,0,0.4-0.1,0.7-0.2l0.1,1.3
		c-0.4,0.2-0.8,0.2-1.3,0.2c-0.3,0-0.6,0-0.8-0.1S51.4,9,51.3,8.8S51.1,8.4,51,8.2C51,8,51,7.6,51,7V4.3h-0.8V3H51V1.8l1.7-1V3H53.8
		z"/>
	<path d="M58.3,7.2L60,7.5c-0.2,0.6-0.5,1.1-1,1.4s-1,0.5-1.7,0.5c-1.1,0-1.9-0.4-2.4-1.1c-0.4-0.6-0.6-1.3-0.6-2.1
		c0-1,0.3-1.8,0.8-2.4s1.2-0.9,2-0.9c0.9,0,1.7,0.3,2.2,0.9s0.8,1.5,0.8,2.8h-4.1c0,0.5,0.1,0.9,0.4,1.1s0.6,0.4,0.9,0.4
		c0.3,0,0.5-0.1,0.7-0.2S58.3,7.5,58.3,7.2z M58.4,5.6c0-0.5-0.1-0.8-0.4-1.1s-0.5-0.4-0.9-0.4c-0.4,0-0.7,0.1-0.9,0.4
		S56,5.1,56,5.6H58.4z"/>
	<path d="M62.8,9.2h-1.6V3h1.5v0.9C63,3.5,63.2,3.2,63.4,3s0.4-0.2,0.7-0.2c0.4,0,0.7,0.1,1.1,0.3l-0.5,1.4
		c-0.3-0.2-0.5-0.3-0.8-0.3c-0.2,0-0.4,0.1-0.6,0.2S63.1,4.9,63,5.2s-0.1,1-0.1,2.1V9.2z"/>
	<path d="M68.2,3h0.9V2.5c0-0.5,0.1-0.9,0.2-1.2s0.3-0.5,0.6-0.6s0.7-0.2,1.1-0.2c0.5,0,0.9,0.1,1.4,0.2l-0.2,1.1
		c-0.3-0.1-0.5-0.1-0.8-0.1c-0.2,0-0.4,0.1-0.5,0.2s-0.2,0.3-0.2,0.6V3H72v1.3h-1.2v4.9h-1.6V4.3h-0.9V3z"/>
	<path d="M72.4,6c0-0.5,0.1-1.1,0.4-1.6s0.7-0.9,1.1-1.2s1-0.4,1.7-0.4c0.9,0,1.7,0.3,2.3,0.9s0.9,1.4,0.9,2.3
		c0,0.9-0.3,1.7-0.9,2.3s-1.4,0.9-2.3,0.9c-0.6,0-1.1-0.1-1.6-0.4s-0.9-0.6-1.2-1.1S72.4,6.7,72.4,6z M74.1,6.1
		c0,0.6,0.1,1.1,0.4,1.4S75.2,8,75.6,8s0.8-0.2,1.1-0.5s0.4-0.8,0.4-1.4c0-0.6-0.1-1.1-0.4-1.4S76,4.2,75.6,4.2s-0.8,0.2-1.1,0.5
		S74.1,5.5,74.1,6.1z"/>
	<path d="M81.5,9.2h-1.6V3h1.5v0.9c0.3-0.4,0.5-0.7,0.7-0.8s0.4-0.2,0.7-0.2c0.4,0,0.7,0.1,1.1,0.3l-0.5,1.4
		c-0.3-0.2-0.5-0.3-0.8-0.3c-0.2,0-0.4,0.1-0.6,0.2s-0.3,0.4-0.4,0.7s-0.1,1-0.1,2.1V9.2z"/>
	<path d="M95,9.2h-1.9l-0.8-2h-3.4l-0.7,2h-1.8l3.3-8.6h1.8L95,9.2z M91.8,5.8l-1.2-3.2l-1.2,3.2H91.8z"/>
	<path d="M97.3,9.2h-1.6V3h1.5v0.9c0.3-0.4,0.5-0.7,0.7-0.8s0.4-0.2,0.7-0.2c0.4,0,0.7,0.1,1.1,0.3l-0.5,1.4
		c-0.3-0.2-0.5-0.3-0.8-0.3c-0.2,0-0.4,0.1-0.6,0.2s-0.3,0.4-0.4,0.7s-0.1,1-0.1,2.1V9.2z"/>
	<path d="M103.1,3v1.3H102v2.5c0,0.5,0,0.8,0,0.9s0.1,0.2,0.1,0.2s0.2,0.1,0.3,0.1c0.2,0,0.4-0.1,0.7-0.2l0.1,1.3
		c-0.4,0.2-0.8,0.2-1.3,0.2c-0.3,0-0.6,0-0.8-0.1s-0.4-0.2-0.5-0.4s-0.2-0.4-0.2-0.6c0-0.2-0.1-0.6-0.1-1.2V4.3h-0.8V3h0.8V1.8
		l1.7-1V3H103.1z"/>
	<path fill="#AB5179" d="M109.1,8V5.7h-2.2V4.2h2.2V2h1.5v2.2h2.3v1.5h-2.3V8H109.1z"/>
	<path d="M0.8,23.6V15h2.8c1.1,0,1.7,0,2.1,0.1c0.5,0.1,0.9,0.4,1.2,0.8s0.5,1,0.5,1.7c0,0.5-0.1,1-0.3,1.3s-0.4,0.6-0.7,0.8
		s-0.6,0.3-0.9,0.4c-0.4,0.1-1,0.1-1.8,0.1H2.5v3.2H0.8z M2.5,16.5v2.4h0.9c0.7,0,1.1,0,1.4-0.1s0.4-0.2,0.5-0.4s0.2-0.4,0.2-0.7
		c0-0.3-0.1-0.6-0.3-0.8s-0.4-0.3-0.7-0.4c-0.2,0-0.6-0.1-1.2-0.1H2.5z"/>
	<path d="M12.7,23.6v-0.9c-0.2,0.3-0.5,0.6-0.9,0.8s-0.8,0.3-1.2,0.3c-0.4,0-0.8-0.1-1.1-0.3S8.9,23,8.8,22.7s-0.2-0.8-0.2-1.4v-3.9
		h1.6v2.9c0,0.9,0,1.4,0.1,1.6s0.2,0.4,0.3,0.5s0.4,0.2,0.6,0.2c0.3,0,0.5-0.1,0.8-0.2s0.4-0.3,0.5-0.6s0.1-0.8,0.1-1.7v-2.6h1.6
		v6.2H12.7z"/>
	<path d="M15.7,23.6V15h1.6v3.1c0.5-0.6,1.1-0.9,1.8-0.9c0.8,0,1.4,0.3,1.9,0.8s0.7,1.3,0.7,2.4c0,1.1-0.3,1.9-0.8,2.5
		s-1.1,0.9-1.8,0.9c-0.4,0-0.7-0.1-1.1-0.3s-0.6-0.4-0.9-0.8v0.9H15.7z M17.3,20.4c0,0.6,0.1,1.1,0.3,1.4c0.3,0.4,0.7,0.7,1.1,0.7
		c0.4,0,0.7-0.2,0.9-0.5s0.4-0.8,0.4-1.5c0-0.7-0.1-1.2-0.4-1.5s-0.6-0.5-1-0.5c-0.4,0-0.7,0.2-1,0.5S17.3,19.7,17.3,20.4z"/>
	<path d="M23,23.6V15h1.6v8.6H23z"/>
	<path d="M26.1,16.5V15h1.6v1.5H26.1z M26.1,23.6v-6.2h1.6v6.2H26.1z"/>
	<path d="M34.7,19.2l-1.6,0.3c-0.1-0.3-0.2-0.6-0.4-0.7s-0.4-0.2-0.8-0.2c-0.4,0-0.7,0.1-1,0.4s-0.4,0.8-0.4,1.4
		c0,0.7,0.1,1.3,0.4,1.6s0.6,0.5,1,0.5c0.3,0,0.6-0.1,0.8-0.3s0.3-0.5,0.4-0.9l1.6,0.3c-0.2,0.7-0.5,1.3-1,1.7s-1.1,0.6-1.9,0.6
		c-0.9,0-1.6-0.3-2.2-0.9s-0.8-1.4-0.8-2.4c0-1,0.3-1.8,0.8-2.4s1.3-0.9,2.2-0.9c0.8,0,1.4,0.2,1.8,0.5S34.5,18.6,34.7,19.2z"/>
	<path d="M39.1,23.6v-8.5h1.7v7.1h4.3v1.4H39.1z"/>
	<path d="M46.2,16.5V15h1.6v1.5H46.2z M46.2,23.6v-6.2h1.6v6.2H46.2z"/>
	<path d="M48.6,17.4h0.9v-0.5c0-0.5,0.1-0.9,0.2-1.2s0.3-0.5,0.6-0.6s0.7-0.2,1.1-0.2c0.5,0,0.9,0.1,1.4,0.2l-0.2,1.1
		c-0.3-0.1-0.5-0.1-0.8-0.1c-0.2,0-0.4,0.1-0.5,0.2s-0.2,0.3-0.2,0.6v0.4h1.2v1.3h-1.2v4.9h-1.6v-4.9h-0.9V17.4z"/>
	<path d="M56.8,21.6l1.6,0.3c-0.2,0.6-0.5,1.1-1,1.4s-1,0.5-1.7,0.5c-1.1,0-1.9-0.4-2.4-1.1c-0.4-0.6-0.6-1.3-0.6-2.1
		c0-1,0.3-1.8,0.8-2.4s1.2-0.9,2-0.9c0.9,0,1.7,0.3,2.2,0.9s0.8,1.5,0.8,2.8h-4.1c0,0.5,0.1,0.9,0.4,1.1s0.6,0.4,0.9,0.4
		c0.3,0,0.5-0.1,0.7-0.2S56.7,21.9,56.8,21.6z M56.9,20c0-0.5-0.1-0.8-0.4-1.1s-0.5-0.4-0.9-0.4c-0.4,0-0.7,0.1-0.9,0.4
		s-0.3,0.6-0.3,1.1H56.9z"/>
</g>
<text transform="matrix(1 0 0 1 -0.1024 9.2104)" display="none"><tspan x="0" y="0" display="inline" font-family="'Arial-BoldMT'" font-size="12">CCA</tspan><tspan x="25.2" y="0" display="inline" font-family="'Arial-BoldMT'" font-size="12"> Center for Art </tspan><tspan x="107.4" y="0" display="inline" fill="#0DB2DF" font-family="'Arial-BoldMT'" font-size="12">+</tspan><tspan x="114.2" y="0" display="inline" fill="#AB5179" font-family="'Arial-BoldMT'" font-size="12"> </tspan><tspan x="117.4" y="0" display="inline" font-family="'Arial-BoldMT'" font-size="12">Public Life</tspan></text>
</svg>
